<svg version="1.1" id="Capa_1" xmlns="http://www.w3.org/2000/svg" xmlns:xlink="http://www.w3.org/1999/xlink" x="0px" y="0px" viewBox="0 0 44.1 56.9" style="enable-background:new 0 0 44.1 56.9;" xml:space="preserve">
 <style type="text/css">
  .st0{fill:#F9BA15;}
 </style>
 <path id="XMLID_00000080204040996410192840000010907952032862743720_" class="st0" d="M37.8,19.4c-4.2-4.3-9.2-6.5-15.1-6.5
	c-5.6,0-10.4,2-14.4,5.9L8.3,0L0,0l0.2,35c0,3.5,0.8,6.7,2.2,9.7c1.5,0.2,3,0.5,4.6,0.7c0.1,0,0.3,0,0.4-0.1
	c1.5-1.2,5.5-3.9,7.1-5.1c0,0,0,0,0-0.1c-0.4-0.1-3.1-1.8-7.8-4.5c-1-0.6-1.1-0.6-0.2-1.4c0.5-0.5,1-0.9,1.5-1.4
	C8.5,32.3,9.2,32,9.9,32c2.5-0.1,9,2.3,11.7,2.2c0.4,0,0.7-0.2,1-0.4c2-1.2,6-3.5,8.1-4.6c1.8-0.9,6.2-3.3,7.9-0.8
	c0.5,0.7,1.8,2.5-3.2,6.1c-2,1.7-24.2,14.6-27.9,16.8c4.1,3.8,9.1,5.6,14.8,5.6c6,0,11.2-2.2,15.5-6.5c4.3-4.3,6.4-9.5,6.4-15.5
	C44.1,29,42,23.8,37.8,19.4z">
 </path>
</svg>